<svg width="24" height="24" viewBox="0 0 24 24" fill="none" xmlns="http://www.w3.org/2000/svg">
<path fill-rule="evenodd" clip-rule="evenodd" d="M2.00012 11.9994C2.00012 6.48039 6.48012 1.99939 12.0001 1.99939C17.5301 1.99939 22.0001 6.48039 22.0001 11.9994C22.0001 17.5204 17.5301 21.9994 12.0001 21.9994C6.48012 21.9994 2.00012 17.5204 2.00012 11.9994ZM11.1201 8.20939C11.1201 7.73039 11.5201 7.32939 12.0001 7.32939C12.4801 7.32939 12.8701 7.73039 12.8701 8.20939V12.6294C12.8701 13.1104 12.4801 13.4994 12.0001 13.4994C11.5201 13.4994 11.1201 13.1104 11.1201 12.6294V8.20939ZM12.0101 16.6804C11.5201 16.6804 11.1301 16.2804 11.1301 15.8004C11.1301 15.3204 11.5201 14.9304 12.0001 14.9304C12.4901 14.9304 12.8801 15.3204 12.8801 15.8004C12.8801 16.2804 12.4901 16.6804 12.0101 16.6804Z" fill="white"/>
</svg>
